inDegrees=no
num_controls=7
num_derivatives=13
num_iterations=68
num_multipliers=7
num_parameters=0
num_slacks=7
num_states=26
objective=0.461188
objective_accelerations=0.000550
objective_balance=0.010436
objective_effort=0.012652
objective_height=0.437550
objective_ligament=0.000000
solver_duration=897.140025
status=Solve_Succeeded
success=true
DataType=double
version=3
OpenSimVersion=4.5
endheader
time	/jointset/ground_pelvis/pelvis_tilt/value	/jointset/ground_pelvis/pelvis_tx/value	/jointset/ground_pelvis/pelvis_ty/value	/jointset/hip_l/hip_flexion_l/value	/jointset/hip_l/hip_adduction_l/value	/jointset/hip_l/hip_rotation_l/value	/jointset/back/lumbar_extension/value	/jointset/patellofemoral_l/patellar_flexion_l/value	/jointset/knee_l/knee_flexion_l/value	/jointset/knee_l/knee_adduction_l/value	/jointset/knee_l/knee_rotation_l/value	/jointset/ankle_l/ankle_angle_l/value	/jointset/subtalar_l/subtalar_angle_l/value	/jointset/ground_pelvis/pelvis_tilt/speed	/jointset/ground_pelvis/pelvis_tx/speed	/jointset/ground_pelvis/pelvis_ty/speed	/jointset/hip_l/hip_flexion_l/speed	/jointset/hip_l/hip_adduction_l/speed	/jointset/hip_l/hip_rotation_l/speed	/jointset/back/lumbar_extension/speed	/jointset/patellofemoral_l/patellar_flexion_l/speed	/jointset/knee_l/knee_flexion_l/speed	/jointset/knee_l/knee_adduction_l/speed	/jointset/knee_l/knee_rotation_l/speed	/jointset/ankle_l/ankle_angle_l/speed	/jointset/subtalar_l/subtalar_angle_l/speed	/forceset/tau_hip_flexion_l	/forceset/tau_hip_adduction_l	/forceset/tau_hip_rotation_l	/forceset/tau_knee_flexion_l	/forceset/tau_ankle_angle_l	/forceset/tau_subtalar_angle_l	/forceset/tau_lumbar_extension	lambda_cid13_p0	lambda_cid13_p1	lambda_cid13_p2	lambda_cid13_p3	lambda_cid13_p4	lambda_cid13_p5	lambda_cid14_p0	/jointset/ground_pelvis/pelvis_tilt/accel	/jointset/ground_pelvis/pelvis_tx/accel	/jointset/ground_pelvis/pelvis_ty/accel	/jointset/hip_l/hip_flexion_l/accel	/jointset/hip_l/hip_adduction_l/accel	/jointset/hip_l/hip_rotation_l/accel	/jointset/back/lumbar_extension/accel	/jointset/patellofemoral_l/patellar_flexion_l/accel	/jointset/knee_l/knee_flexion_l/accel	/jointset/knee_l/knee_adduction_l/accel	/jointset/knee_l/knee_rotation_l/accel	/jointset/ankle_l/ankle_angle_l/accel	/jointset/subtalar_l/subtalar_angle_l/accel	gamma_cid13_p0	gamma_cid13_p1	gamma_cid13_p2	gamma_cid13_p3	gamma_cid13_p4	gamma_cid13_p5	gamma_cid14_p0
0	-0.1266946237168068	0.04585719615602266	0.8969154199905309	0.3774924667018715	-0.2716502640631412	-0.0248541157353895	-0.01265067647494873	0.03223648243715727	0.03223648243721463	-0.1745328192407575	-0.06214569338939012	-0.04231377076293093	-0.02479229477397432	0	0	0	0	0	0	0	0	0	0	0	0	0	0.01008215769046593	0.03202743968648769	0.01926188058121913	-0.1634194252539458	0.1330184318822467	-0.05794346391252248	0.0264730080840846	-0.1934288124657679	27.65369470166879	-7.615352362764962	23.30725477212764	-626.8695321507466	-17.2515609533591	-34.29859338947065	0.2873085574221474	-0.3601271029035997	-0.02300506674571355	0.2178000222440608	0.01951235196457774	0.08913588876229411	-0.07721738731507749	0.1176233203914372	0.1176233203913928	0.05221193410689995	-0.07651892375558918	-0.395292721116575	-0.07067907607382712	1.413693501072439e-09	1.246852356058134e-09	-8.870436124133195e-10	-1.326223017963803e-09	9.518977065737529e-09	1.714122076214635e-09	2.334247573628351e-10
0.01	-0.1266851000201153	0.04584373689218981	0.8969144242966394	0.377502206487929	-0.2716495219976867	-0.02484963583827769	-0.01265711979948344	0.03224120814434384	0.03224120814438325	-0.1745307509972983	-0.06214955670515736	-0.04232842459649248	-0.02479491185466736	0.001416667747522896	-0.002237814213136517	-0.000184356880255285	0.00184102096838438	0.0001250171858343469	0.0008839696022491279	-0.001544350010028168	0.0008372313153639514	0.0008372313153631023	0.0003582206874163142	-0.0007602854405195393	-0.002418364663198929	-0.0004312591514123924	0.0371981022896057	0.03072562808079634	0.0118381665262602	-0.2136066815605826	0.210447916820399	-0.06129102185927601	0.008606016767139119	24.84090933103773	26.40159635535296	-9.331714721158567	2.495374419926787	-628.9760036070951	-16.78818767649323	-34.29888096689982	-0.004364923597156885	-0.08750306049260199	-0.01393181010814587	0.1512128122712909	0.005486891109997452	0.08622618776597933	-0.2313965748394273	0.05058647155891	0.05058647155882586	0.0193129755318475	-0.07392651712018034	-0.08824788674876037	-0.01552590949213662	7.500123097481851e-10	7.08785718670614e-10	-5.555511945563184e-10	-6.676966150323291e-10	6.161867087013641e-09	1.153756990777031e-09	1.108641406284003e-10
0.02	-0.1266760518073057	0.04582152059023249	0.8969120288716597	0.377527148419357	-0.2716482316625076	-0.02483667650679461	-0.01268667717749624	0.03225106885155521	0.03225106885155245	-0.1745267633790654	-0.06216065150787977	-0.04235188998623451	-0.02479907684183901	-9.509678566617509e-05	-0.001751407624893294	-0.0002799462176665577	0.00304042906222165	0.0001096539403768429	0.001695886876890358	-0.004622810699852793	0.001027000008708749	0.001027000008707272	0.0003838749537226925	-0.001446297397854632	-0.00176231123948177	-0.0003095812955229641	0.06431404688886772	0.02942381647495451	0.004414452471489059	-0.2637939378673919	0.2878774017584504	-0.06463857980620133	-0.009260974549583105	49.87560486712735	25.14972402779031	-11.04844270092457	-18.31213616565555	-631.0750997912536	-16.32409770755919	-34.29925689759366	-0.2983778987211189	0.1847170573731533	-0.005251558176886435	0.08947744733440645	-0.008563734293879997	0.07472542324080458	-0.3840395232748003	-0.01186920401269745	-0.01186920401269733	-0.01430135011526484	-0.06166422711881137	0.219590896267502	0.03990832538664252	8.633111842393108e-11	1.707190812830937e-10	-2.240587766993172e-10	-9.17021210085552e-12	2.804757108289752e-09	5.933919053394262e-10	-1.169647610603445e-11
0.03	-0.1266908799101992	0.04581233236432766	0.8969089429520551	0.3775621701189413	-0.2716475211174074	-0.02481590781585653	-0.01275142909909366	0.03226095054115005	0.0322609505411518	-0.1745235339087932	-0.06217827227909217	-0.04235955694590222	-0.02480036642302284	-0.002766735070714192	-0.0001774181949999757	-0.0003397902706876379	0.003979959937089215	3.656464502496538e-05	0.002456651543683032	-0.008261520031712049	0.0009730622223702331	0.0009730622223679378	0.0002717155181821222	-0.002076083063809713	0.0001272094327877535	3.290542050454714e-05	0.05852681150202536	0.02936485956114843	0.005988233650481589	-0.2532305501867291	0.271598114466834	-0.0635929317366517	-0.005413751434683815	44.62578374557015	25.27162483725982	-10.67588306968215	-13.99514532779633	-630.6497281650884	-16.70747468623021	-34.29936207657538	-0.235988500675231	0.130062792860878	-0.00673316655226115	0.09859830470206285	-0.006065070361793752	0.07657205656030697	-0.3438786007887186	0.001402583764019955	0.001402583763897135	-0.008218815128421335	-0.0633696415118838	0.1583761508405896	0.02860489853935474	4.2940759637719e-11	1.108467889114496e-10	-1.272019167999606e-10	1.126545253519377e-11	1.432233652747546e-09	3.172162673127994e-10	-1.302789944835281e-12
0.04	-0.1267293107373475	0.04581614861413578	0.8969051821243856	0.377607068606631	-0.2716474181738783	-0.02478756746460803	-0.01285058650655766	0.03227100458276545	0.03227100458276248	-0.1745211351477994	-0.06220213768792904	-0.04235137999920587	-0.02479879392628241	-0.004815641647063029	0.000849487517695714	-0.0004149278306652637	0.005015786697518065	-1.186637855857831e-05	0.003210218936949632	-0.0115039078695425	0.0010614704243571	0.001061470424353983	0.0002177330884259563	-0.002695224936898751	0.001406470030424196	0.0002628342896671808	0.05273957611418983	0.02930590264725262	0.007562014829675585	-0.2426671625065737	0.2553188271750783	-0.06254728366722478	-0.001566528320509486	39.3766903285337	25.3941066563501	-10.30422525653431	-9.687350694103833	-630.2196831258907	-17.08945570839241	-34.29942436732883	-0.1738315569820891	0.07530031393436822	-0.008310259568175653	0.1087366244464447	-0.003632079940326142	0.07328596853567272	-0.3047752244694382	0.01659999365209091	0.01659999365209052	-0.002665948958610317	-0.05953546854570255	0.09753888134166967	0.01739675601373092	1.233990255332222e-11	6.083417375662767e-11	-3.51829034564316e-11	1.854460710329589e-11	1.006295069616618e-10	4.690020552145031e-11	1.183222204926361e-11
0.05	-0.1267860651895289	0.04582837544383544	0.8969006238699471	0.3776625649637638	-0.2716477278859776	-0.02475174365603952	-0.0129807119717699	0.03228236969021472	0.0322823696901933	-0.1745191041923727	-0.06223214737993998	-0.04233250801393884	-0.02479532155880723	-0.006527053781739713	0.001592295599359091	-0.0004963399096097619	0.006076691870803784	-5.118240635385213e-05	0.003951140927808745	-0.01450660972155888	0.001207582230855726	0.001207582230854777	0.0001861253850471816	-0.003304740902447606	0.002361711156644111	0.0004292020555439852	0.05219598172750376	0.02984782550964127	0.007690459649684212	-0.2418112050021265	0.2542047559048897	-0.06301816317134235	-0.001172637291811162	38.9979227579458	25.62557288514552	-10.29617306209154	-9.405580421619501	-630.2060227542087	-16.65730301647735	-34.29951220937892	-0.1685667891164467	0.07323363750533177	-0.00799920054113957	0.1037485394434422	-0.004247324229800693	0.07398504410941384	-0.2958313486528249	0.01302144599744636	0.01302144599751747	-0.003758066239810651	-0.06136377129133587	0.09358435210185387	0.01589120886046058	-5.310963155055393e-12	4.390279754822177e-11	-1.237927844416265e-11	2.118440804161624e-11	1.093316956207927e-10	4.915977678051325e-11	3.676118498641975e-13
0.06	-0.126859687912498	0.04584792287079711	0.8968952629910252	0.3777284665877447	-0.2716484639503562	-0.02470861268161212	-0.013140427192134	0.03229507685008001	0.03229507685007676	-0.1745174592911099	-0.06226819305355548	-0.0423042700926505	-0.02479025862927799	-0.008189295812874182	0.002313606970097421	-0.000575452727354319	0.007096840070976878	-9.713683542632266e-05	0.004671652108603685	-0.01742185889705604	0.001329880911302559	0.001329880911303785	0.0001405222731847026	-0.00390242129728509	0.003279657236466774	0.0005809467008550085	0.05165238734055195	0.03038974837214321	0.0078189044704898	-0.2409552474976218	0.2530906846348203	-0.06348904267533544	-0.0007787462635093639	38.61977951064191	25.85751225754417	-10.28886160665782	-9.129449465330762	-630.1870281875302	-16.2238984184353	-34.29959259420899	-0.1639975362743823	0.07100097175003117	-0.007850407328169254	0.1005852298237166	-0.004959760195870358	0.0692038065229252	-0.2872846891659596	0.0118373684414604	0.01183736844146127	-0.005465030655560212	-0.05716835440353294	0.09007987206292689	0.0144721319006292	-2.241656606865323e-11	2.836431561124393e-11	7.510014427842677e-12	2.362886777447208e-11	1.744678352039247e-10	6.289621679959354e-11	-1.213277191557725e-11
0.07000000000000001	-0.126949591334167	0.04587450017865125	0.8968891210598913	0.3778043887014593	-0.2716496754553502	-0.02465837673099456	-0.01332883131990949	0.03230894433245807	0.03230894433244695	-0.1745163054674697	-0.06231014848845236	-0.04226710441816625	-0.0247837490464339	-0.00977355133896737	0.002990699519853331	-0.0006526693449253775	0.008083014714319478	-0.0001443739114161582	0.005372781164521478	-0.02024170697626633	0.001445244825423493	0.001445244825425441	9.175926063305847e-05	-0.004486385683434135	0.004140771132402904	0.0007189290025461378	0.05061569309828366	0.03051929428745504	0.008087773549423694	-0.2392135164863138	0.2505236132375148	-0.06345119733846996	-5.475449316349544e-05	37.78895489652443	25.93010177511018	-10.23595988430855	-8.5023231410911	-630.1357781767402	-16.17220231702501	-34.29965959473974	-0.1529639884525616	0.0643901409075361	-0.007617630079682057	0.096948386991801	-0.004487141985973793	0.07015392664248582	-0.2767459160477827	0.01163029353606543	0.01163029353590759	-0.004354415842294523	-0.05866848330176994	0.08222116542581512	0.01315514488924265	-2.126286902473025e-11	-8.273644376374149e-12	1.019131711522214e-11	1.751406206986828e-11	1.200160275002971e-10	5.132690421974326e-12	-1.063848259236929e-11
0.08	-0.1270548021965932	0.04590751376086748	0.8968822148943632	0.3778900355227312	-0.271651335623235	-0.02460121219552286	-0.01354491613821969	0.03232401433213096	0.03232401433212706	-0.1745155937698543	-0.06235787516772225	-0.04222170880131411	-0.02477592086745748	-0.01125078397230004	0.003600861842515328	-0.0007282996062026362	0.009041781573698773	-0.0001868694148578601	0.006057369081100547	-0.0229579970055183	0.001570384365090426	0.001570384365093091	5.209707658960835e-05	-0.005056670172833368	0.004925645711025264	0.0008446659276724757	0.04957899885626956	0.03064884020281868	0.008356642628451138	-0.2374717854747231	0.2479565418403312	-0.0634133520015278	0.0006692372772584265	36.95867610963153	26.00311512532824	-10.18371901538927	-7.880192783833633	-630.0800078925744	-16.11950712848866	-34.29971751506285	-0.1425929577229468	0.05761492633185257	-0.007533136069391318	0.0951036730308701	-0.004011445686322434	0.06589557865526657	-0.2665730791746274	0.01379249355040497	0.01379249355040459	-0.003644864954079056	-0.05443237505367849	0.07483200860080531	0.01202305658773393	-1.893115262870915e-11	-4.627286101242058e-11	1.176242688746443e-11	1.084704569188e-11	5.78488683588141e-11	-5.72437370134964e-11	-8.24131113440975e-12
